<svg width="258" height="149" viewBox="0 0 258 149" fill="none" xmlns="http://www.w3.org/2000/svg">
<path fill-rule="evenodd" clip-rule="evenodd" d="M257.573 68.4216L129.943 0L1.42983 68.4216H1L1.21599 68.5354L1 68.6504H1.43417L129.943 136.385L257.569 68.6504H258L257.785 68.5354L258 68.4216H257.573Z" fill="#9A9A9A"/>
<path fill-rule="evenodd" clip-rule="evenodd" d="M257.573 68.4216L129.943 0L1.42983 68.4216H1L1.21599 68.5354L1 68.6504H1.43417L129.943 136.385L257.569 68.6504H258L257.785 68.5354L258 68.4216H257.573Z" fill="#9A9A9A"/>
<path d="M128.734 135.464V147.905L257.489 81.0941V69.1143L128.734 135.464Z" fill="#E1E1E1" stroke="white"/>
<path d="M128.734 135.464V147.905L0.999977 81.0941V69.1143L128.734 135.464Z" fill="#C4C4C4" stroke="white"/>
</svg>
